<svg xmlns="http://www.w3.org/2000/svg" viewBox="0 0 56.25 75"><title>book-alt--teal</title><path d="M6.87,0A6.89,6.89,0,0,0,0,7.5H0V68.7A6.31,6.31,0,0,0,6.3,75h50V0ZM2.5,68.7V12.5a6.28,6.28,0,0,0,3.75,1.25V72.5A3.8,3.8,0,0,1,2.5,68.7Zm51.25,3.8h-45V13.75H12.5v31.5a1.85,1.85,0,0,0,1.37,1.81,2.31,2.31,0,0,0,.52.06h0l.17,0A2.45,2.45,0,0,0,15,47l.17-.08a1.57,1.57,0,0,0,.33-.19l.13-.1a2.54,2.54,0,0,0,.37-.43l5.27-8.79,5.27,8.79a1.85,1.85,0,0,0,1.93.86,1.28,1.28,0,0,1,.17,0A1.87,1.87,0,0,0,30,45.25V13.75H53.75ZM27.67,11.85v0l-.17.34v0l-.13.28.13.2V43L21.25,32.57,15,43V12.79l2-4H29.23Zm3.1-.6,2.5-5H15.48l-2.5,5H7.14A4.57,4.57,0,0,1,2.52,7.33,4.39,4.39,0,0,1,6.87,2.5H53.75V3.75H47.5a1.25,1.25,0,0,0,0,2.5h6.25V7.5h-5a1.25,1.25,0,0,0,0,2.5h5v1.25Zm0,0" fill="#2ab798"/></svg>