<svg id="Layer_1" xmlns="http://www.w3.org/2000/svg" viewBox="0 0 53 54.5"><style>.st0{fill:#fff}</style><path class="st0" d="M50,31.9c1.7,0,3,1.3,3,3v16.5c0,1.7-1.3,3-3,3H3.1c-1.7,0-3.1-1.3-3.1-3V35c0-1.7,1.5-3,3.1-3s3,1.3,3,3v13.3 h40.8V35C46.9,33.3,48.3,31.9,50,31.9L50,31.9z M50,31.9"/><path class="st0" d="M24.4,38.8L12.1,26.4c-1.2-1.2-1.2-3,0-4.3c1.2-1.2,3-1.2,4.3,0l7.2,7.1V3c0-1.7,1.3-3,3-3c1.7,0,3,1.3,3,3 v26.2l7.1-7.1c1.2-1.2,3.1-1.2,4.4,0c1.2,1.2,1.2,3,0,4.3L28.7,38.8c-0.6,0.6-1.3,0.9-2.1,0.9C25.8,39.7,25,39.3,24.4,38.8 L24.4,38.8z M24.4,38.8"/></svg>