<svg id="Layer_1" xmlns="http://www.w3.org/2000/svg" viewBox="0 0 90 90"><style>.st0{fill:none;stroke:#2eb698;stroke-width:3;stroke-linecap:round;stroke-linejoin:round;stroke-miterlimit:10}.st1{fill:#2eb698}</style><path class="st0" d="M27.9 29H43.4V88.5H27.9zM48.1 71.9H63.6V88.5H48.1zM68.3 57.9H83.8V88.4H68.3zM7.8 10.3H23.3V88.39999999999999H7.8z"/><path class="st1" d="M1.5,89C0.7,89,0,89.3,0,88.4V1.6C0,0.7,0.7,0,1.5,0c0.9,0,1.6,0.7,1.6,1.6v86.9C3.1,89.3,2.4,89,1.5,89 L1.5,89z M1.5,90"/><path class="st1" d="M88.4,90H1.6C0.7,90,0,89.3,0,88.5c0-0.9,0.7-1.6,1.6-1.6h86.9c0.9,0,1.6,0.7,1.6,1.6C90,89.3,89.3,90,88.4,90 L88.4,90z M88.4,90"/></svg>