<svg id="Layer_1" xmlns="http://www.w3.org/2000/svg" viewBox="0 0 72 100.1"><style>.st0,.st1,.st2{fill:none;stroke:#2eb698;stroke-width:3;stroke-miterlimit:10}.st1,.st2{stroke-linecap:round}.st2{stroke-linejoin:round}</style><path class="st0" d="M68.5,98.6h-65c-1.1,0-2-0.9-2-2v-90c0-1.1,0.9-2,2-2h65c1.1,0,2,0.9,2,2v90C70.5,97.7,69.6,98.6,68.5,98.6z"/><path class="st1" d="M9.5 1.5L9.5 7.7M18.5 1.5L18.5 7.7M27.5 1.5L27.5 7.7M36.5 1.5L36.5 7.7M45.5 1.5L45.5 7.7M54.5 1.5L54.5 7.7M63.5 1.5L63.5 7.7"/><path class="st2" d="M9.5 25.6L14.5 30.6 26 19.1M9.5 42.6L14.5 47.6 26 36.1M9.5 59.6L14.5 64.6 26 53.1M9.5 76.6L14.5 81.6 26 70.1M30.5 24.6L55.5 24.6M30.5 30.6L62.5 30.6M30.5 41.6L55.5 41.6M30.5 47.6L62.5 47.6M30.5 58.6L55.5 58.6M30.5 64.6L62.5 64.6M30.5 75.6L55.5 75.6M30.5 81.6L62.5 81.6"/></svg>