<svg xmlns="http://www.w3.org/2000/svg" viewBox="0 0 47.31 82"><title>phone-alt--teal</title><path d="M40.49,1H6.82A5.83,5.83,0,0,0,1,6.82V75.18A5.83,5.83,0,0,0,6.82,81H40.49a5.83,5.83,0,0,0,5.82-5.82V6.82A5.83,5.83,0,0,0,40.49,1ZM15.35,4.55H32c.43,0,.77.62.77,1.39S32.39,7.35,32,7.35H15.35c-.43,0-.76-.63-.76-1.41s.33-1.39.76-1.39Zm8.31,70.7a3.72,3.72,0,1,1,3.7-3.72,3.73,3.73,0,0,1-3.7,3.72ZM41.94,62.51H5.37V10.84H41.94Zm0,0" fill="none" stroke="#2ab798" stroke-miterlimit="10" stroke-width="2"/></svg>