<svg id="Layer_1" xmlns="http://www.w3.org/2000/svg" viewBox="0 0 30 30"><style>.st0{fill:#818181}</style><path class="st0" d="M24.1,30c-1.3,0-2.8-0.3-4.4-0.9c-3.6-1.4-7.6-4.1-11.1-7.6C5,17.9,2.3,13.9,0.9,10.3c-1.2-3.3-1.2-6,0-7.3 c0.2-0.2,0.4-0.4,0.5-0.6C2.6,1.3,3.9-0.1,5.6,0c1.2,0,2.3,0.8,3.5,2.2c3.4,4.3,1.9,5.8,0.1,7.5l-0.3,0.3 c-0.3,0.3-0.8,1.6,4.3,6.8c1.7,1.7,3.1,2.9,4.3,3.7c0.7,0.5,2,1.2,2.5,0.6l0.3-0.3c1.8-1.8,3.3-3.3,7.5,0.1 c1.4,1.2,2.2,2.3,2.2,3.5c0.1,1.7-1.3,3-2.5,4.1c-0.2,0.2-0.4,0.4-0.6,0.5C26.3,29.7,25.4,30,24.1,30L24.1,30z M5.5,1"/></svg>