<svg id="Layer_1" xmlns="http://www.w3.org/2000/svg" viewBox="0 0 99.3 106.3"><style>.st0{fill-rule:evenodd;clip-rule:evenodd;fill:#2eb698}.st1{fill:none;stroke:#2eb698;stroke-width:3.3035;stroke-miterlimit:10}</style><path class="st0" d="M37.4 29.6c-.4.4-.6.7-.8.9C36.9 30.1 37.4 29.6 37.4 29.6L37.4 29.6zM54.7 32.8c1.3 1.6 1.9 3.5 1.9 5.6 0 1.6-.4 3-1.3 4.5-.5.8-1.1 1.6-1.9 2.4l-2.7 2.6c-2.6 2.5-4.2 4.7-5 6.7-.8 1.9-1.1 4.5-1.1 7.7h5.9c0-2.8.3-4.9 1-6.3.6-1.4 2-3.2 4.1-5.2 2.9-2.8 4.9-5 5.8-6.4 1-1.5 1.4-3.4 1.4-5.7 0-3.9-1.3-7.1-3.9-9.5-2.6-2.5-6.1-3.7-10.5-3.7-4.7 0-8.4 1.5-11.1 4.4-2.7 2.9-4.1 6.7-4.1 11.5h5.9c.1-2.9.5-5.1 1.3-6.6 1.4-2.7 4-4.1 7.7-4.1C51.3 30.4 53.4 31.2 54.7 32.8L54.7 32.8zM44.5 67.8H51.1V74.7H44.5z"/><path class="st1" d="M97.7,49.6c0,26.5-21.5,48-48,48c-7.8,0-15.2-1.9-21.7-5.2l-24.3,11l6.5-26.5c-5.3-7.7-8.5-17.1-8.5-27.2 c0-26.5,21.5-48,48-48S97.7,23.1,97.7,49.6z"/></svg>