<svg xmlns="http://www.w3.org/2000/svg" viewBox="0 0 76.27 75"><title>server</title><path d="M13.34 7.63a5.72 5.72 0 1 0 5.73 5.71 5.71 5.71 0 0 0-5.73-5.71zm0 8.89a3.18 3.18 0 1 1 3.18-3.18 3.18 3.18 0 0 1-3.18 3.18zm0 0M64.83 11.44a1.27 1.27 0 1 1-1.27-1.27 1.27 1.27 0 0 1 1.27 1.27zm0 0M59.75 11.44a1.28 1.28 0 1 1-1.27-1.27 1.27 1.27 0 0 1 1.27 1.27zm0 0M67.37 15.26a1.27 1.27 0 0 1-2.54 0 1.27 1.27 0 1 1 2.54 0zm0 0M62.29 15.26A1.27 1.27 0 1 1 61 14a1.26 1.26 0 0 1 1.27 1.28zm0 0M54.66 11.44a1.27 1.27 0 1 1-1.27-1.27 1.27 1.27 0 0 1 1.27 1.27zm0 0M57.2 15.26A1.27 1.27 0 1 1 55.93 14a1.26 1.26 0 0 1 1.27 1.28zm0 0M49.58 11.44a1.27 1.27 0 1 1-1.28-1.27 1.27 1.27 0 0 1 1.28 1.27zm0 0M52.12 15.26A1.27 1.27 0 1 1 50.85 14a1.26 1.26 0 0 1 1.27 1.28zm0 0M44.49 11.44a1.27 1.27 0 1 1-1.27-1.27 1.27 1.27 0 0 1 1.27 1.27zm0 0M47 15.26a1.28 1.28 0 0 1-2.55 0 1.28 1.28 0 1 1 2.55 0zm0 0" fill="#2ab798"/><path d="M76.27,20.84v-15A5.86,5.86,0,0,0,70.41,0H5.86A5.87,5.87,0,0,0,0,5.86v15a5.79,5.79,0,0,0,2.26,4.58A5.82,5.82,0,0,0,0,30V45a5.82,5.82,0,0,0,2.26,4.59A5.79,5.79,0,0,0,0,54.16v15A5.87,5.87,0,0,0,5.86,75H70.41a5.87,5.87,0,0,0,5.86-5.86v-15A5.79,5.79,0,0,0,74,49.58,5.82,5.82,0,0,0,76.27,45V30A5.82,5.82,0,0,0,74,25.42a5.79,5.79,0,0,0,2.26-4.58ZM73.73,54.16v15a3.32,3.32,0,0,1-3.32,3.32H5.86a3.32,3.32,0,0,1-3.31-3.32v-15a3.31,3.31,0,0,1,3.31-3.31H70.41a3.32,3.32,0,0,1,3.32,3.31Zm0-24.15V45a3.32,3.32,0,0,1-3.32,3.31H5.86A3.31,3.31,0,0,1,2.55,45V30A3.31,3.31,0,0,1,5.86,26.7H70.41A3.32,3.32,0,0,1,73.73,30ZM5.86,24.15a3.31,3.31,0,0,1-3.31-3.31v-15A3.31,3.31,0,0,1,5.86,2.55H70.41a3.32,3.32,0,0,1,3.32,3.31v15a3.32,3.32,0,0,1-3.32,3.31Zm0,0" fill="#2ab798"/><path d="M13.34 43.22A5.72 5.72 0 1 0 7.63 37.5a5.72 5.72 0 0 0 5.71 5.72zm0-8.89a3.18 3.18 0 1 1-3.17 3.17 3.17 3.17 0 0 1 3.17-3.17zm0 0M64.83 35.59a1.27 1.27 0 1 1-1.27-1.26 1.27 1.27 0 0 1 1.27 1.26zm0 0M59.75 35.59a1.28 1.28 0 1 1-1.27-1.26 1.27 1.27 0 0 1 1.27 1.26zm0 0M67.37 39.41a1.27 1.27 0 1 1-1.26-1.27 1.26 1.26 0 0 1 1.26 1.27zm0 0M62.29 39.41A1.27 1.27 0 1 1 61 38.14a1.27 1.27 0 0 1 1.27 1.27zm0 0M54.66 35.59a1.27 1.27 0 1 1-1.27-1.26 1.27 1.27 0 0 1 1.27 1.26zm0 0M57.2 39.41a1.27 1.27 0 1 1-1.27-1.27 1.27 1.27 0 0 1 1.27 1.27zm0 0M49.58 35.59a1.27 1.27 0 1 1-2.54 0 1.27 1.27 0 0 1 2.54 0zm0 0M52.12 39.41a1.27 1.27 0 1 1-1.27-1.27 1.27 1.27 0 0 1 1.27 1.27zm0 0M44.49 35.59a1.27 1.27 0 1 1-1.27-1.26 1.27 1.27 0 0 1 1.27 1.26zm0 0M47 39.41a1.28 1.28 0 1 1-1.27-1.27A1.27 1.27 0 0 1 47 39.41zm0 0M13.34 67.37a5.72 5.72 0 1 0-5.71-5.71 5.72 5.72 0 0 0 5.71 5.71zm0-8.89a3.18 3.18 0 1 1-3.17 3.18 3.18 3.18 0 0 1 3.17-3.18zm0 0M64.83 59.75a1.27 1.27 0 1 1-1.27-1.27 1.27 1.27 0 0 1 1.27 1.27zm0 0M59.75 59.75a1.28 1.28 0 1 1-1.27-1.27 1.27 1.27 0 0 1 1.27 1.27zm0 0M67.37 63.56a1.27 1.27 0 1 1-1.26-1.27 1.26 1.26 0 0 1 1.26 1.27zm0 0M62.29 63.56A1.27 1.27 0 1 1 61 62.29a1.27 1.27 0 0 1 1.27 1.27zm0 0M54.66 59.75a1.27 1.27 0 1 1-1.27-1.27 1.27 1.27 0 0 1 1.27 1.27zm0 0M57.2 63.56a1.27 1.27 0 1 1-1.27-1.27 1.27 1.27 0 0 1 1.27 1.27zm0 0M49.58 59.75a1.27 1.27 0 1 1-2.54 0 1.27 1.27 0 1 1 2.54 0zm0 0M52.12 63.56a1.27 1.27 0 1 1-1.27-1.27 1.27 1.27 0 0 1 1.27 1.27zm0 0M44.49 59.75a1.27 1.27 0 1 1-1.27-1.27 1.27 1.27 0 0 1 1.27 1.27zm0 0M47 63.56a1.28 1.28 0 1 1-1.27-1.27A1.27 1.27 0 0 1 47 63.56zm0 0" fill="#2ab798"/></svg>