<?xml version="1.0" encoding="utf-8"?>
<!-- Generator: Adobe Illustrator 22.1.0, SVG Export Plug-In . SVG Version: 6.00 Build 0)  -->
<svg version="1.1" id="Layer_1" xmlns="http://www.w3.org/2000/svg" xmlns:xlink="http://www.w3.org/1999/xlink" x="0px" y="0px"
	 viewBox="0 0 11.6 8" style="enable-background:new 0 0 11.6 8;" xml:space="preserve">
<style type="text/css">
	.st0{fill:#2EB698;}
</style>
<path class="st0" d="M11.5,3.6L8,0.2c-0.2-0.2-0.6-0.2-0.8,0C7,0.4,7,0.7,7.2,0.9l2.5,2.5H0.5C0.2,3.5,0,3.7,0,4
	c0,0.3,0.2,0.5,0.5,0.5h9.2L7.2,7.1C7,7.3,7,7.6,7.2,7.8C7.3,7.9,7.5,8,7.6,8C7.8,8,7.9,7.9,8,7.8l3.5-3.5
	C11.7,4.2,11.7,3.8,11.5,3.6L11.5,3.6z"/>
</svg>
