<?xml version="1.0" encoding="utf-8"?>
<!-- Generator: Adobe Illustrator 22.1.0, SVG Export Plug-In . SVG Version: 6.00 Build 0)  -->
<svg version="1.1" id="Layer_1" xmlns="http://www.w3.org/2000/svg" xmlns:xlink="http://www.w3.org/1999/xlink" x="0px" y="0px"
	 viewBox="0 0 97.5 81.4" style="enable-background:new 0 0 97.5 81.4;" xml:space="preserve">
<style type="text/css">
	.st0{fill:none;stroke:#2EB698;stroke-width:3;stroke-linecap:round;stroke-linejoin:round;stroke-miterlimit:10;}
</style>
<g>
	<path class="st0" d="M46,72.4c0,0-6-8-15-7s-25,8-29,8v-64c0,0,8.2-0.6,18-5c9-4,23-6,29,9v59H46z"/>
	<path class="st0" d="M96,79.9c0,0-5.5-0.5-18-5c-4.2-1.5-17-6-26,3h-3h-0.5h-3c-9-9-21.8-4.5-26-3c-12.5,4.5-18,5-18,5"/>
	<path class="st0" d="M51.5,72.4c0,0,6-8,15-7s25,8,29,8v-64c0,0-8.2-0.6-18-5c-9-4-23-6-29,9v59H51.5z"/>
</g>
</svg>
