<?xml version="1.0" encoding="utf-8"?>
<!-- Generator: Adobe Illustrator 22.1.0, SVG Export Plug-In . SVG Version: 6.00 Build 0)  -->
<svg version="1.1" id="Layer_1" xmlns="http://www.w3.org/2000/svg" xmlns:xlink="http://www.w3.org/1999/xlink" x="0px" y="0px"
	 viewBox="0 0 31.5 24" style="enable-background:new 0 0 31.5 24;" xml:space="preserve">
<style type="text/css">
	.st0{fill:#2EB698;}
</style>
<path class="st0" d="M31.5,2.8c0-1.5-1.2-2.8-2.8-2.8h-26C1.2,0,0,1.2,0,2.8v18.5C0,22.8,1.2,24,2.8,24h26c1.5,0,2.8-1.2,2.8-2.8
	V2.8z M1.8,3.1l8.9,8.8l-8.9,8.9V3.1z M15.8,14.4L3.2,1.8h25.2L15.8,14.4z M12,13.3l3.1,3.1c0.4,0.4,0.9,0.4,1.3,0l3-3l8.8,8.8H3.2
	L12,13.3z M20.8,12l8.8-8.8v17.7L20.8,12z"/>
</svg>
