<?xml version="1.0" encoding="utf-8"?>
<!-- Generator: Adobe Illustrator 22.1.0, SVG Export Plug-In . SVG Version: 6.00 Build 0)  -->
<svg version="1.1" id="Layer_1" xmlns="http://www.w3.org/2000/svg" xmlns:xlink="http://www.w3.org/1999/xlink" x="0px" y="0px"
	 viewBox="0 0 39.4 30" style="enable-background:new 0 0 39.4 30;" xml:space="preserve">
<style type="text/css">
	.st0{fill:#818181;}
</style>
<path class="st0" d="M39.4,3.5c0-1.9-1.5-3.5-3.5-3.5H3.5C1.6,0,0,1.6,0,3.5v23.1C0,28.4,1.5,30,3.5,30h32.5c1.9,0,3.5-1.5,3.5-3.5
	V3.5z M2.3,3.9l11.1,11L2.3,26.1V3.9z M19.8,18L4,2.3h31.5L19.8,18z M15.1,16.6l3.9,3.9c0.5,0.4,1.2,0.4,1.6,0l3.8-3.8l11.1,11.1
	H3.9L15.1,16.6z M26,15L37.1,3.9v22.1L26,15z"/>
</svg>
