<svg xmlns="http://www.w3.org/2000/svg" viewBox="0 0 23 23"><title>expand</title><path d="M22.071,8.9a.929.929,0,0,1-.929-.929V1.858H15.024a.929.929,0,0,1,0-1.858h7.047A.929.929,0,0,1,23,.929V7.976A.929.929,0,0,1,22.071,8.9Z" fill="#2ab798"/><path d="M7.976,23H.929A.929.929,0,0,1,0,22.071V15.024a.929.929,0,0,1,1.858,0v6.118H7.976a.929.929,0,1,1,0,1.858Z" fill="#2ab798"/><path d="M13.849,10.08a.929.929,0,0,1-.657-1.586L21.414.272a.929.929,0,0,1,1.314,1.314L14.506,9.808A.927.927,0,0,1,13.849,10.08Z" fill="#2ab798"/><path d="M.929,23a.929.929,0,0,1-.657-1.586l8.222-8.222a.929.929,0,0,1,1.314,1.314L1.586,22.728A.927.927,0,0,1,.929,23Z" fill="#2ab798"/></svg>