<?xml version="1.0" encoding="utf-8"?>
<!-- Generator: Adobe Illustrator 22.1.0, SVG Export Plug-In . SVG Version: 6.00 Build 0)  -->
<svg version="1.1" id="Layer_1" xmlns="http://www.w3.org/2000/svg" xmlns:xlink="http://www.w3.org/1999/xlink" x="0px" y="0px"
	 viewBox="0 0 95 77.6" style="enable-background:new 0 0 95 77.6;" xml:space="preserve">
<style type="text/css">
	.st0{fill:#2EB698;}
</style>
<g>
	<path class="st0" d="M91,25.3h-5.5v-9.9c0-2.4-1.9-4.3-4.3-4.3H42L34.1,0H4.3C1.9,0,0,1.9,0,4.3v69.2h0c0,0.9,0.3,1.8,0.8,2.5
		c0.8,1,1.9,1.6,3.2,1.6h70.9c1.8,0,3.4-1.2,3.9-2.9L95,30.3V30C95,27.3,93.3,25.3,91,25.3L91,25.3z M3.2,4.3c0-0.6,0.5-1.2,1.2-1.2
		h28.1l7.9,11.1h40.8c0.6,0,1.2,0.5,1.2,1.2v9.9H20.2c-0.2,0-0.4,0-0.7,0.1c-1.5,0.3-2.8,1.4-3.2,2.8L3.2,64V4.3z M75.8,73.8
		c-0.1,0.4-0.5,0.7-0.9,0.7H4.1c-0.4,0-0.6-0.2-0.7-0.4c-0.1-0.1-0.3-0.4-0.2-0.6l16.1-44.3c0.1-0.4,0.5-0.7,0.9-0.7H91
		c0.6,0,0.8,0.9,0.8,1.3L75.8,73.8z M75.8,73.8"/>
</g>
</svg>
