<?xml version="1.0" encoding="utf-8"?>
<!-- Generator: Adobe Illustrator 22.1.0, SVG Export Plug-In . SVG Version: 6.00 Build 0)  -->
<svg version="1.1" id="Layer_1" xmlns="http://www.w3.org/2000/svg" xmlns:xlink="http://www.w3.org/1999/xlink" x="0px" y="0px"
	 viewBox="0 0 90 90" style="enable-background:new 0 0 90 90;" xml:space="preserve">
<style type="text/css">
	.st0{fill:none;stroke:#2EB698;stroke-width:3;stroke-linecap:round;stroke-linejoin:round;stroke-miterlimit:10;}
	.st1{fill:#2EB698;}
</style>
<g>
	<rect x="27.9" y="29" class="st0" width="15.5" height="59.5"/>
	<rect x="48.1" y="71.9" class="st0" width="15.5" height="16.6"/>
	<rect x="68.3" y="57.9" class="st0" width="15.5" height="30.5"/>
	<rect x="7.8" y="10.3" class="st0" width="15.5" height="78.1"/>
	<path class="st1" d="M1.5,89C0.7,89,0,89.3,0,88.4V1.6C0,0.7,0.7,0,1.5,0c0.9,0,1.6,0.7,1.6,1.6v86.9C3.1,89.3,2.4,89,1.5,89
		L1.5,89z M1.5,90"/>
	<path class="st1" d="M88.4,90H1.6C0.7,90,0,89.3,0,88.5c0-0.9,0.7-1.6,1.6-1.6h86.9c0.9,0,1.6,0.7,1.6,1.6C90,89.3,89.3,90,88.4,90
		L88.4,90z M88.4,90"/>
</g>
</svg>
