<?xml version="1.0" encoding="utf-8"?>
<!-- Generator: Adobe Illustrator 22.1.0, SVG Export Plug-In . SVG Version: 6.00 Build 0)  -->
<svg version="1.1" id="Layer_1" xmlns="http://www.w3.org/2000/svg" xmlns:xlink="http://www.w3.org/1999/xlink" x="0px" y="0px"
	 viewBox="0 0 95.6 95.6" style="enable-background:new 0 0 95.6 95.6;" xml:space="preserve">
<style type="text/css">
	.st0{fill:#2EB698;}
	.st1{fill:#FFFFFF;}
</style>
<g>
	<path class="st0" d="M47.8,95.2c-0.4,0-0.9-0.1-1.2-0.4l-45-28.2c-0.7-0.4-1.1-1.2-1.1-2c0-0.8,0.4-1.6,1.1-2l10.3-6.4L1.6,49.8
		c-0.7-0.4-1.1-1.2-1.1-2c0-0.8,0.4-1.6,1.1-2l10.3-6.4L1.6,33c-0.7-0.4-1.1-1.2-1.1-2c0-0.8,0.4-1.6,1.1-2l45-28.2
		c0.4-0.2,0.8-0.4,1.2-0.4s0.9,0.1,1.2,0.4l45,28.2c0.7,0.4,1.1,1.2,1.1,2c0,0.8-0.4,1.6-1.1,2l-10.3,6.4l10.3,6.4
		c0.7,0.4,1.1,1.2,1.1,2c0,0.8-0.4,1.6-1.1,2l-10.3,6.4l10.3,6.4c0.7,0.4,1.1,1.2,1.1,2c0,0.8-0.4,1.6-1.1,2l-45,28.2
		C48.7,95.1,48.3,95.2,47.8,95.2z M7.2,64.6l40.6,25.4l40.6-25.4L79.3,59L49.1,77.8c-0.4,0.2-0.8,0.4-1.2,0.4s-0.9-0.1-1.2-0.4
		L16.3,59L7.2,64.6z M7.2,47.8l40.6,25.3l40.6-25.2l-9.1-5.6L49.1,61c-0.4,0.2-0.8,0.4-1.2,0.4s-0.9-0.1-1.2-0.4L16.3,42.2L7.2,47.8
		z M7.2,31l40.6,25.3L88.4,31L47.8,5.6L7.2,31z"/>
	<path class="st1" d="M47.8,0.9c0.4,0,0.7,0.1,1,0.3l45,28.2c0.6,0.4,0.9,1,0.9,1.6c0,0.7-0.3,1.3-0.9,1.6l-9.7,6.1l-1.2,0.8
		l1.2,0.8l9.7,6c0.6,0.3,0.9,1,0.9,1.6c0,0.7-0.3,1.3-0.9,1.6l-9.7,6.1l-1.2,0.8l1.2,0.8l9.7,6c0.6,0.3,0.9,0.9,0.9,1.6
		c0,0.7-0.3,1.3-0.9,1.6l-45,28.2c-0.3,0.2-0.7,0.3-1,0.3c-0.4,0-0.7-0.1-1-0.3l-45-28.2c-0.6-0.3-0.9-1-0.9-1.6
		c0-0.7,0.3-1.3,0.9-1.6l9.7-6l1.2-0.8l-1.2-0.8l-9.7-6c-0.6-0.3-0.9-1-0.9-1.6s0.3-1.3,0.9-1.6l9.7-6l1.2-0.8l-1.2-0.8l-9.7-6
		c-0.6-0.3-0.9-1-0.9-1.6c0-0.7,0.3-1.3,0.9-1.6l45-28.2C47.1,1,47.5,0.9,47.8,0.9 M47.8,56.8l0.5-0.3C49.4,55.8,87.6,32,88,31.8
		l1.2-0.8L88,30.2L48.3,5.3L47.8,5l-0.5,0.3L7.6,30.2L6.4,31l1.2,0.8l39.7,24.7L47.8,56.8 M47.8,73.6l0.5-0.3
		c0.9-0.6,32.2-20.1,38.6-24l1.1-0.7l1.2-0.8L88,47.1L79.7,42l-0.5-0.3L78.8,42l-30,18.7c-0.3,0.2-0.6,0.3-1,0.3
		c-0.4,0-0.7-0.1-1-0.3L16.8,41.9l-0.5-0.3l-0.5,0.3L7.6,47l-1.2,0.8l1.2,0.8l39.7,24.7L47.8,73.6 M47.8,90.6l0.5-0.3L88,65.4
		l1.2-0.8L88,63.9l-8.3-5.1l-0.5-0.3l-0.5,0.3l-30,18.7c-0.3,0.2-0.6,0.3-1,0.3s-0.7-0.1-1-0.3L16.8,58.7l-0.5-0.3l-0.5,0.3
		l-8.2,5.1l-1.2,0.8l1.2,0.8l39.7,24.9L47.8,90.6 M47.8,0c-0.5,0-1,0.1-1.5,0.4l-45,28.2C0.5,29.1,0,30,0,31c0,1,0.5,1.9,1.3,2.4
		l9.7,6l-9.7,6C0.5,46,0,46.9,0,47.8c0,1,0.5,1.9,1.3,2.4l9.7,6l-9.7,6C0.5,62.8,0,63.7,0,64.6c0,1,0.5,1.9,1.3,2.4l45,28.2
		c0.5,0.3,1,0.4,1.5,0.4s1-0.1,1.5-0.4l45-28.2c0.8-0.5,1.3-1.4,1.3-2.4c0-1-0.5-1.9-1.3-2.4l-9.7-6l9.7-6.1
		c0.8-0.5,1.3-1.4,1.3-2.4c0-1-0.5-1.9-1.3-2.4l-9.7-6l9.7-6.1c0.8-0.5,1.3-1.4,1.3-2.4c0-1-0.5-1.9-1.3-2.4l-45-28.2
		C48.8,0.1,48.3,0,47.8,0L47.8,0z M47.8,55.7L8.1,31L47.8,6.1L87.5,31C87.2,31.2,49,55,47.8,55.7L47.8,55.7z M47.8,72.5L8.1,47.8
		l8.2-5.1l30.1,18.7c0.5,0.3,1,0.4,1.5,0.4s1-0.1,1.5-0.4l30-18.7l8.2,5.1C87.3,48,48.9,71.9,47.8,72.5L47.8,72.5z M47.8,89.5
		L8.1,64.6l8.2-5.1l30.1,18.7c0.5,0.3,1,0.4,1.5,0.4s1-0.1,1.5-0.4l30-18.7l8.3,5.1L47.8,89.5L47.8,89.5z"/>
</g>
</svg>
