<?xml version="1.0" encoding="utf-8"?>
<!-- Generator: Adobe Illustrator 22.1.0, SVG Export Plug-In . SVG Version: 6.00 Build 0)  -->
<svg version="1.1" id="Layer_1" xmlns="http://www.w3.org/2000/svg" xmlns:xlink="http://www.w3.org/1999/xlink" x="0px" y="0px"
	 viewBox="0 0 20 32" style="enable-background:new 0 0 20 32;" xml:space="preserve">
<style type="text/css">
	.st0{fill:#818181;}
</style>
<g>
	<g>
		<path class="st0" d="M10,0C4.5,0,0,4.5,0,10c0,1.5,0.4,3,1,4.3C1,14.4,10,32,10,32l8.9-17.5c0.7-1.4,1.1-2.9,1.1-4.5
			C20,4.5,15.5,0,10,0L10,0z M10,16c-3.3,0-6-2.7-6-6c0-3.3,2.7-6,6-6c3.3,0,6,2.7,6,6C16,13.3,13.3,16,10,16L10,16z M10,16"/>
	</g>
</g>
</svg>
