<?xml version="1.0" encoding="utf-8"?>
<!-- Generator: Adobe Illustrator 22.1.0, SVG Export Plug-In . SVG Version: 6.00 Build 0)  -->
<svg version="1.1" id="Layer_1" xmlns="http://www.w3.org/2000/svg" xmlns:xlink="http://www.w3.org/1999/xlink" x="0px" y="0px"
	 viewBox="0 0 72 100.1" style="enable-background:new 0 0 72 100.1;" xml:space="preserve">
<style type="text/css">
	.st0{fill:none;stroke:#2EB698;stroke-width:3;stroke-miterlimit:10;}
	.st1{fill:none;stroke:#2EB698;stroke-width:3;stroke-linecap:round;stroke-miterlimit:10;}
	.st2{fill:none;stroke:#2EB698;stroke-width:3;stroke-linecap:round;stroke-linejoin:round;stroke-miterlimit:10;}
</style>
<g>
	<path class="st0" d="M68.5,98.6h-65c-1.1,0-2-0.9-2-2v-90c0-1.1,0.9-2,2-2h65c1.1,0,2,0.9,2,2v90C70.5,97.7,69.6,98.6,68.5,98.6z"
		/>
	<line class="st1" x1="9.5" y1="1.5" x2="9.5" y2="7.7"/>
	<line class="st1" x1="18.5" y1="1.5" x2="18.5" y2="7.7"/>
	<path class="st1" d="M21.5,7.7"/>
	<path class="st1" d="M21.5,1.5"/>
	<line class="st1" x1="27.5" y1="1.5" x2="27.5" y2="7.7"/>
	<line class="st1" x1="36.5" y1="1.5" x2="36.5" y2="7.7"/>
	<path class="st1" d="M39.5,7.7"/>
	<path class="st1" d="M39.5,1.5"/>
	<line class="st1" x1="45.5" y1="1.5" x2="45.5" y2="7.7"/>
	<line class="st1" x1="54.5" y1="1.5" x2="54.5" y2="7.7"/>
	<path class="st1" d="M57.5,7.7"/>
	<path class="st1" d="M57.5,1.5"/>
	<line class="st1" x1="63.5" y1="1.5" x2="63.5" y2="7.7"/>
	<polyline class="st2" points="9.5,25.6 14.5,30.6 26,19.1 	"/>
	<polyline class="st2" points="9.5,42.6 14.5,47.6 26,36.1 	"/>
	<polyline class="st2" points="9.5,59.6 14.5,64.6 26,53.1 	"/>
	<polyline class="st2" points="9.5,76.6 14.5,81.6 26,70.1 	"/>
	<line class="st2" x1="30.5" y1="24.6" x2="55.5" y2="24.6"/>
	<line class="st2" x1="30.5" y1="30.6" x2="62.5" y2="30.6"/>
	<line class="st2" x1="30.5" y1="41.6" x2="55.5" y2="41.6"/>
	<line class="st2" x1="30.5" y1="47.6" x2="62.5" y2="47.6"/>
	<line class="st2" x1="30.5" y1="58.6" x2="55.5" y2="58.6"/>
	<line class="st2" x1="30.5" y1="64.6" x2="62.5" y2="64.6"/>
	<line class="st2" x1="30.5" y1="75.6" x2="55.5" y2="75.6"/>
	<line class="st2" x1="30.5" y1="81.6" x2="62.5" y2="81.6"/>
</g>
</svg>
