<?xml version="1.0" encoding="utf-8"?>
<!-- Generator: Adobe Illustrator 22.1.0, SVG Export Plug-In . SVG Version: 6.00 Build 0)  -->
<svg version="1.1" id="Layer_1" xmlns="http://www.w3.org/2000/svg" xmlns:xlink="http://www.w3.org/1999/xlink" x="0px" y="0px"
	 viewBox="0 0 99.3 106.3" style="enable-background:new 0 0 99.3 106.3;" xml:space="preserve">
<style type="text/css">
	.st0{fill-rule:evenodd;clip-rule:evenodd;fill:#2EB698;}
	.st1{fill:none;stroke:#2EB698;stroke-width:3.3035;stroke-miterlimit:10;}
</style>
<g>
	<g>
		<path class="st0" d="M37.4,29.6c-0.4,0.4-0.6,0.7-0.8,0.9C36.9,30.1,37.4,29.6,37.4,29.6L37.4,29.6z M37.4,29.6"/>
		<path class="st0" d="M54.7,32.8c1.3,1.6,1.9,3.5,1.9,5.6c0,1.6-0.4,3-1.3,4.5c-0.5,0.8-1.1,1.6-1.9,2.4l-2.7,2.6
			c-2.6,2.5-4.2,4.7-5,6.7c-0.8,1.9-1.1,4.5-1.1,7.7h5.9c0-2.8,0.3-4.9,1-6.3c0.6-1.4,2-3.2,4.1-5.2c2.9-2.8,4.9-5,5.8-6.4
			c1-1.5,1.4-3.4,1.4-5.7c0-3.9-1.3-7.1-3.9-9.5c-2.6-2.5-6.1-3.7-10.5-3.7c-4.7,0-8.4,1.5-11.1,4.4c-2.7,2.9-4.1,6.7-4.1,11.5h5.9
			c0.1-2.9,0.5-5.1,1.3-6.6c1.4-2.7,4-4.1,7.7-4.1C51.3,30.4,53.4,31.2,54.7,32.8L54.7,32.8z M54.7,32.8"/>
		<rect x="44.5" y="67.8" class="st0" width="6.6" height="6.9"/>
	</g>
	<path class="st1" d="M97.7,49.6c0,26.5-21.5,48-48,48c-7.8,0-15.2-1.9-21.7-5.2l-24.3,11l6.5-26.5c-5.3-7.7-8.5-17.1-8.5-27.2
		c0-26.5,21.5-48,48-48S97.7,23.1,97.7,49.6z"/>
</g>
</svg>
