<svg xmlns="http://www.w3.org/2000/svg" viewBox="0 0 55.94 77"><title>tablet--teal</title><path d="M23.47,3.36h9c.23,0,.42.42.42.93s-.19,1-.42,1h-9c-.23,0-.41-.42-.41-1s.18-.93.41-.93" fill="none" stroke="#2ab798" stroke-miterlimit="10"/><path d="M52.74,3.5A6.79,6.79,0,0,0,47.45,1h-39A6.8,6.8,0,0,0,3.2,3.5a8.8,8.8,0,0,0-2.2,6v58a8.8,8.8,0,0,0,2.2,6A6.8,6.8,0,0,0,8.49,76h39a6.79,6.79,0,0,0,5.29-2.5,8.8,8.8,0,0,0,2.2-6v-58a8.8,8.8,0,0,0-2.2-6ZM30.08,71.58a2.71,2.71,0,0,1-4.22,0,3.67,3.67,0,0,1,0-4.79,2.71,2.71,0,0,1,4.22,0,3.67,3.67,0,0,1,0,4.79ZM49,60.66a1.8,1.8,0,0,1-.44,1.2,1.37,1.37,0,0,1-1.06.51h-39a1.36,1.36,0,0,1-1-.51A1.76,1.76,0,0,1,7,60.66V9.52a1.76,1.76,0,0,1,.45-1.2,1.38,1.38,0,0,1,1-.5h39a1.39,1.39,0,0,1,1.06.5A1.8,1.8,0,0,1,49,9.52Zm0,0" fill="none" stroke="#2ab798" stroke-linecap="round" stroke-linejoin="round" stroke-width="2"/></svg>